<svg fill="none" height="48" viewBox="0 0 156 48" width="156" xmlns="http://www.w3.org/2000/svg"><path d="m.224 47 12.736-17.344-12.16-16.704h6.848l8.832 12.864h.192l8.832-12.864h6.656l-12.16 16.512 12.8 17.536h-6.848l-9.472-13.696h-.192l-9.408 13.696z" fill="#bfc4cf"/><path d="m40.2015 35.864v-4.864l19.84-29.056h7.36v28.928h7.168v4.992h-7.168v11.136h-5.952v-11.136zm6.016-5.248v.256h15.36v-22.336h-.32zm52.1375-29.632003c10.176 0 16.384 6.784003 16.384 17.792003v11.2c0 11.264-6.272 17.92-16.384 17.92-10.048 0-16.384-6.656-16.384-17.92v-11.2c0-11.008 6.272-17.792003 16.384-17.792003zm0 41.600003c6.528 0 10.368-4.8 10.368-12.608v-11.136c0-7.68-3.84-12.544-10.368-12.544s-10.368 4.864-10.368 12.544v11.136c0 7.808 3.84 12.608 10.368 12.608zm25.13 4.416v-5.312c0-5.632 3.008-9.472 9.728-13.312l9.408-5.376c5.12-2.944 6.208-5.824 6.208-8.704v-.768c0-4.224-2.944-7.616-8.96-7.616-5.824 0-9.536 3.456-9.6 9.472h-5.888c.128-9.152 6.592-14.400003 15.488-14.400003 9.216 0 15.04 5.376003 15.04 12.736003 0 4.992-2.112 9.536-9.088 13.568l-9.984 5.76c-4.48 2.688-6.4 4.928-6.4 8.448v.384h26.368v5.12z" fill="#000"/></svg>